<svg width="419" height="120" viewBox="0 0 419 120" fill="none" xmlns="http://www.w3.org/2000/svg">
<path fill-rule="evenodd" clip-rule="evenodd" d="M91.4062 0C108.75 0 120 11.25 120 28.5938V91.4062C120 108.75 108.75 120 91.4062 120H28.5938C11.25 120 0 108.75 0 91.4062V28.5938C0 11.25 11.25 0 28.5938 0H91.4062Z" fill="url(#paint0_linear_3_2)"/>
<path fill-rule="evenodd" clip-rule="evenodd" d="M36 77.2535C35.3464 77.166 34.6797 77.0904 34 77.028V62.6L35 61L36 61.4011V77.2535C51.8034 79.3708 59.97 88.5 59.97 88.5C73.223 74.563 95 77 95 77C92.35 68.877 85 61 85 61L59.97 71.0155L35 61L25 77C29.0023 76.6727 32.6706 76.8075 36 77.2535ZM60 28L111 48L60 68L9 48L60 28ZM55 48C55 46.3431 57.2386 45 60 45C62.7614 45 65 46.3431 65 48C65 49.6569 62.7614 51 60 51C59.258 51 58.5538 50.903 57.9206 50.7291L37.0137 58.9851L33.298 57.5281L55.1908 48.8237C55.0665 48.562 55 48.2856 55 48ZM32 84.0095C32 82.3474 33.3465 81 35 81C36.6569 81 38 82.3366 38 84.0095V97H32V84.0095Z" fill="white"/>
<path d="M159.096 38.928L167.16 39.056H174.52C180.152 39.056 184.376 40.1227 187.192 42.256C190.051 44.3893 191.48 46.928 191.48 49.872C191.48 52.816 190.435 55.2267 188.344 57.104C186.253 58.9387 183.587 60.2187 180.344 60.944C176.845 61.328 174.691 61.52 173.88 61.52C173.112 61.52 172.067 61.392 170.744 61.136V74.256C170.744 78.0107 171.192 79.888 172.088 79.888H175.8C176.141 79.888 176.312 80.2507 176.312 80.976C176.312 81.6587 176.141 82 175.8 82L167.736 81.936L158.776 82.128C158.435 82.128 158.264 81.7653 158.264 81.04C158.264 80.3147 158.435 79.952 158.776 79.952H161.528C162.595 79.952 163.299 79.76 163.64 79.376C163.981 78.9493 164.152 78.16 164.152 77.008V46.672C164.152 42.9173 163.704 41.04 162.808 41.04H159.096C158.755 41.04 158.584 40.6987 158.584 40.016C158.584 39.2907 158.755 38.928 159.096 38.928ZM174.136 59.152C177.421 59.152 179.981 58.3413 181.816 56.72C183.651 55.0987 184.568 53.0933 184.568 50.704C184.568 48.3147 183.587 46.2027 181.624 44.368C179.661 42.5333 176.867 41.616 173.24 41.616C171.576 41.616 170.744 42.4907 170.744 44.24V58.768C171.896 59.024 173.027 59.152 174.136 59.152ZM197.624 77.52C197.88 77.3067 198.136 77.328 198.392 77.584C198.648 77.7973 198.776 77.968 198.776 78.096C198.776 78.1813 198.755 78.2667 198.712 78.352C196.621 81.3387 194.296 82.832 191.736 82.832C189.944 82.832 188.301 82.2133 186.808 80.976C185.315 79.7387 184.035 78.1813 182.968 76.304C181.944 74.4267 180.941 72.5067 179.96 70.544C177.528 65.552 175.203 62.5227 172.984 61.456L177.08 60.688C179.043 61.0293 180.749 61.904 182.2 63.312C183.693 64.72 184.888 66.2987 185.784 68.048C186.68 69.7547 187.533 71.4613 188.344 73.168C190.264 77.1787 192.355 79.184 194.616 79.184C195.427 79.184 196.429 78.6293 197.624 77.52ZM227.173 70.928C227.173 74.4693 225.658 77.3493 222.629 79.568C219.599 81.744 216.25 82.832 212.581 82.832C208.911 82.832 205.669 82.192 202.853 80.912L203.365 82.192C203.493 82.448 203.386 82.6827 203.045 82.896C202.746 83.152 202.405 83.28 202.021 83.28C201.637 83.28 201.381 83.1733 201.253 82.96C199.887 79.504 199.055 75.4933 198.757 70.928C198.757 70.5013 199.098 70.288 199.781 70.288C200.463 70.288 200.826 70.4373 200.869 70.736C201.807 73.9787 203.706 76.5813 206.565 78.544C208.314 79.7813 210.341 80.4 212.645 80.4C214.991 80.4 216.869 79.7387 218.277 78.416C219.727 77.0507 220.453 75.4293 220.453 73.552C220.453 71.632 219.962 69.9253 218.981 68.432C217.999 66.896 216.783 65.6587 215.333 64.72C213.882 63.7813 212.303 62.8 210.597 61.776C208.89 60.7093 207.311 59.7067 205.861 58.768C204.41 57.7867 203.194 56.4853 202.213 54.864C201.231 53.2427 200.741 51.408 200.741 49.36C200.741 46.2453 202.127 43.6213 204.901 41.488C207.717 39.312 211.237 38.224 215.461 38.224C217.381 38.224 219.173 38.48 220.837 38.992L221.605 39.184C221.434 38.5013 221.327 38.032 221.285 37.776C221.285 37.52 221.37 37.3493 221.541 37.264C221.754 37.136 222.053 37.072 222.437 37.072C222.863 37.072 223.141 37.2427 223.269 37.584C224.25 41.04 224.826 44.432 224.997 47.76C224.869 48.016 224.506 48.144 223.909 48.144C223.354 48.144 223.013 48.08 222.885 47.952C222.415 46.2027 221.754 44.7733 220.901 43.664C220.047 42.512 219.109 41.7227 218.085 41.296C217.061 40.8693 215.866 40.656 214.501 40.656C211.855 40.656 209.957 41.3387 208.805 42.704C207.695 44.0267 207.141 45.4987 207.141 47.12C207.141 48.6987 207.503 50.064 208.229 51.216C208.997 52.3253 209.957 53.3067 211.109 54.16C212.303 54.9707 213.605 55.7813 215.013 56.592C216.421 57.36 217.829 58.192 219.237 59.088C220.687 59.984 222.01 60.9653 223.205 62.032C225.85 64.3787 227.173 67.344 227.173 70.928ZM259.035 38.992L267.995 38.8C268.336 38.8 268.507 39.1627 268.507 39.888C268.507 40.6133 268.336 40.976 267.995 40.976H265.243C264.176 40.976 263.472 41.1893 263.131 41.616C262.79 42 262.619 42.768 262.619 43.92V79.44H266.331C273.115 79.44 277.808 78.544 280.411 76.752L280.859 73.232C280.944 72.8907 281.307 72.72 281.947 72.72C282.63 72.72 282.971 72.848 282.971 73.104L282.395 83.408C282.395 83.7067 282.054 83.856 281.371 83.856C280.731 83.856 280.411 83.7067 280.411 83.408V82H259.611L250.651 82.128C250.31 82.128 250.139 81.7653 250.139 81.04C250.139 80.3147 250.31 79.952 250.651 79.952H253.403C254.47 79.952 255.174 79.76 255.515 79.376C255.856 78.9493 256.027 78.16 256.027 77.008V46.672C256.027 42.9173 255.579 41.04 254.683 41.04H250.971C250.63 41.04 250.459 40.6987 250.459 40.016C250.459 39.2907 250.63 38.928 250.971 38.928C250.971 38.928 253.659 38.9493 259.035 38.992ZM307.813 61.264C307.813 61.264 307.599 65.552 307.173 74.128C307.173 76.9867 308.111 78.416 309.989 78.416C310.757 78.416 311.397 78.2027 311.909 77.776C312.463 77.3067 312.783 77.072 312.869 77.072C313.295 77.072 313.509 77.2853 313.509 77.712C313.509 78.8213 312.869 79.9307 311.589 81.04C310.351 82.1493 308.965 82.704 307.429 82.704C305.893 82.704 304.719 82.0853 303.909 80.848C303.141 79.568 302.757 78.0107 302.757 76.176C302.757 76.0053 302.757 75.8133 302.757 75.6H302.565C301.797 77.6907 300.495 79.4187 298.661 80.784C296.826 82.1493 294.885 82.832 292.837 82.832C290.831 82.832 289.295 82.4267 288.229 81.616C287.205 80.7627 286.693 79.568 286.693 78.032C286.693 75.6 288.079 73.3173 290.853 71.184C293.626 69.0507 297.487 67.2587 302.437 65.808C302.522 64.3573 302.565 63.504 302.565 63.248C302.565 60.944 302.117 59.0453 301.221 57.552C300.367 56.0587 299.066 55.312 297.317 55.312C295.567 55.312 294.138 55.824 293.029 56.848C291.962 57.8293 291.429 59.2587 291.429 61.136C291.429 61.7333 291.45 62.2027 291.493 62.544C291.194 62.9707 290.618 63.184 289.765 63.184C288.911 63.184 288.165 62.928 287.525 62.416C286.885 61.904 286.565 61.1573 286.565 60.176C286.565 58.256 287.781 56.6133 290.213 55.248C292.645 53.8827 295.205 53.2 297.893 53.2C304.506 53.2 307.813 55.888 307.813 61.264ZM295.461 79.312C297.21 79.312 298.767 78.2667 300.133 76.176C301.498 74.0853 302.266 71.248 302.437 67.664C298.81 68.9867 296.271 70.352 294.821 71.76C293.37 73.168 292.645 74.6827 292.645 76.304C292.645 78.3093 293.583 79.312 295.461 79.312ZM326.29 52.176L326.162 57.168H326.29C327.57 55.9733 329.063 55.0133 330.77 54.288C332.476 53.5627 334.034 53.2 335.442 53.2C342.524 53.2 346.066 57.296 346.066 65.488V74.448C346.066 78.2027 346.514 80.08 347.41 80.08H350.546C350.887 80.08 351.058 80.4 351.058 81.04C351.058 81.68 350.93 82 350.674 82C350.674 82 348.348 81.9787 343.698 81.936L336.274 82.128C335.975 82.128 335.826 81.808 335.826 81.168C335.826 80.528 335.932 80.208 336.146 80.208H339.858C340.37 80.208 340.626 79.8453 340.626 79.12V68.304C340.626 63.952 340.028 60.944 338.834 59.28C337.682 57.5733 335.698 56.72 332.882 56.72C330.066 56.72 327.89 57.5733 326.354 59.28V74.448C326.354 78.2027 326.802 80.08 327.698 80.08H330.833C331.175 80.08 331.346 80.4 331.346 81.04C331.346 81.68 331.218 82 330.962 82L323.986 81.936L316.562 82.128C316.263 82.128 316.114 81.808 316.114 81.168C316.114 80.528 316.22 80.208 316.434 80.208H320.146C320.658 80.208 320.914 79.8453 320.914 79.12V64.08C320.914 59.9413 320.316 57.872 319.122 57.872H317.842C317.5 57.872 317.33 57.552 317.33 56.912C317.33 56.272 317.458 55.952 317.714 55.952C318.866 55.952 320.018 55.5893 321.17 54.864C322.322 54.096 323.26 53.328 323.986 52.56C324.754 51.792 325.223 51.408 325.394 51.408C325.991 51.408 326.29 51.664 326.29 52.176ZM365.625 79.696L373.177 79.376C376.249 79.376 378.787 79.9733 380.793 81.168C382.841 82.3627 383.865 84.1547 383.865 86.544C383.865 89.9573 381.859 93.0293 377.849 95.76C373.838 98.5333 369.55 99.92 364.985 99.92C357.987 99.92 354.489 97.808 354.489 93.584C354.489 91.8347 355.299 90.064 356.921 88.272C358.542 86.48 360.462 85.2 362.681 84.432V84.24C358.201 83.6853 355.961 82.1067 355.961 79.504C355.961 78.4373 356.473 77.2853 357.497 76.048C358.521 74.768 360.057 73.8933 362.105 73.424V73.296C360.142 72.5707 358.542 71.3547 357.305 69.648C356.11 67.9413 355.513 66.0427 355.513 63.952C355.513 60.7093 356.665 58.1067 358.969 56.144C361.273 54.1813 364.025 53.2 367.225 53.2C370.467 53.2 373.219 54.4373 375.481 56.912C377.443 54.608 379.385 53.456 381.305 53.456C382.371 53.456 383.203 53.7333 383.801 54.288C384.441 54.8427 384.761 55.6107 384.761 56.592C384.761 57.5733 384.163 58.4053 382.969 59.088C381.39 57.808 380.003 57.168 378.809 57.168C378.382 57.168 377.955 57.296 377.529 57.552C377.102 57.808 376.889 58.0427 376.889 58.256C376.889 58.4267 377.102 59.088 377.529 60.24C377.998 61.3493 378.233 62.544 378.233 63.824C378.233 67.2373 377.166 69.7973 375.033 71.504C372.899 73.2107 370.169 74.1067 366.841 74.192C365.305 74.192 363.982 74.4053 362.873 74.832C360.91 75.6427 359.929 76.5813 359.929 77.648C359.929 79.0133 361.827 79.696 365.625 79.696ZM371.705 84.112L365.881 84.432C364.003 85.1147 362.425 86.1813 361.145 87.632C359.865 89.1253 359.225 90.704 359.225 92.368C359.225 95.9093 361.635 97.68 366.457 97.68C369.315 97.68 372.195 96.784 375.097 94.992C378.041 93.2 379.513 91.024 379.513 88.464C379.513 86.9707 378.745 85.8613 377.209 85.136C375.715 84.4533 373.881 84.112 371.705 84.112ZM366.713 72.08C370.766 72.08 372.793 69.328 372.793 63.824C372.793 61.52 372.323 59.536 371.385 57.872C370.489 56.1653 368.974 55.312 366.841 55.312C362.915 55.312 360.953 58.1493 360.953 63.824C360.953 66.0853 361.401 68.0267 362.297 69.648C363.193 71.2693 364.665 72.08 366.713 72.08Z" fill="#DF8600"/>
<defs>
<linearGradient id="paint0_linear_3_2" x1="0.341999" y1="0" x2="0.341999" y2="119.316" gradientUnits="userSpaceOnUse">
<stop stop-color="#FEA700"/>
<stop offset="1" stop-color="#F9671E"/>
</linearGradient>
</defs>
</svg>
